<svg width="151" height="56" viewBox="0 0 151 56" fill="none" xmlns="http://www.w3.org/2000/svg">
<path d="M65.6306 4.6337H67.9111L70.214 12.9916L72.6588 4.74209H74.9505L77.3953 12.9916L79.6982 4.6337H81.9787L78.8903 15.109H75.9438L73.8052 7.65617L71.6666 15.109H68.7201L65.6306 4.6337Z" fill="white"/>
<path d="M66.8641 35.4461V20.0824H69.0352V26.2916C69.3838 25.7563 70.3771 24.7529 72.2543 24.7529C75.0801 24.7529 76.5975 26.543 76.5975 29.085V35.4461H74.4365V29.5431C74.4365 27.8078 73.4867 26.8044 71.9157 26.8044C70.3224 26.8044 69.024 27.8078 69.024 29.5431V35.4461H66.8641Z" fill="white"/>
<path d="M83.5363 24.7518C85.3151 24.7518 86.4928 25.4066 87.2683 26.3999V24.9708H89.4293V35.4461H87.2683V34.017C86.494 35.0103 85.3151 35.6651 83.5363 35.6651C80.5574 35.6651 78.2769 33.3734 78.2769 30.1543C78.2769 26.9352 80.5574 24.7518 83.5363 24.7518ZM80.4379 30.1532C80.4379 32.0851 81.7798 33.7209 83.7989 33.7209C85.818 33.7209 87.2582 32.084 87.2582 30.1532C87.2582 28.2224 85.8068 26.6938 83.7989 26.6938C81.7798 26.6938 80.4379 28.2212 80.4379 30.1532Z" fill="white"/>
<path d="M91.9176 35.4461V24.9708H94.0887V26.3999C94.6775 25.2546 95.6709 24.7518 96.8162 24.7518C97.6341 24.7518 98.2564 25.0133 98.2564 25.0133L98.0274 26.9988C97.9078 26.9553 97.4385 26.7586 96.7502 26.7586C95.5938 26.7586 94.0876 27.3698 94.0876 29.7375V35.4439H91.9165L91.9176 35.4461Z" fill="white"/>
<path d="M99.433 24.9708H101.604V26.2916C101.943 25.7563 102.935 24.7529 104.78 24.7529C106.58 24.7529 107.846 25.4949 108.512 26.7061C109.144 25.6804 110.454 24.7529 112.255 24.7529C115.048 24.7529 116.554 26.543 116.554 29.085V35.4461H114.383V29.5431C114.383 27.8078 113.456 26.8044 111.917 26.8044C110.39 26.8044 109.135 27.7642 109.08 29.4123V35.4461H106.909V29.5431C106.909 27.8078 105.982 26.8044 104.443 26.8044C102.883 26.8044 101.606 27.8078 101.606 29.5431V35.4461H99.4353V24.9708H99.433Z" fill="white"/>
<path d="M118.196 30.2079C118.196 27.1419 120.575 24.7518 123.76 24.7518C126.946 24.7518 129.325 27.1419 129.325 30.2079C129.325 33.274 126.946 35.664 123.76 35.664C120.575 35.664 118.196 33.274 118.196 30.2079ZM123.761 33.6349C125.737 33.6349 127.166 32.1398 127.166 30.209C127.166 28.2782 125.737 26.7832 123.761 26.7832C121.786 26.7832 120.357 28.2782 120.357 30.209C120.357 32.1398 121.786 33.6349 123.761 33.6349Z" fill="white"/>
<path d="M131.071 35.4461V24.9708H133.242V26.2916C133.591 25.7563 134.584 24.7529 136.461 24.7529C139.342 24.7529 140.859 26.543 140.859 29.085V35.4461H138.698V29.5431C138.698 27.8078 137.749 26.8044 136.123 26.8044C134.529 26.8044 133.231 27.8078 133.231 29.5431V35.4461H131.071Z" fill="white"/>
<path d="M144.272 20.1259C145.057 20.1259 145.614 20.6712 145.614 21.4567C145.614 22.2422 145.057 22.7875 144.272 22.7875C143.486 22.7875 142.941 22.2422 142.941 21.4567C142.941 20.6712 143.486 20.1259 144.272 20.1259ZM143.191 35.4461V24.9708H145.352V35.4461H143.191Z" fill="white"/>
<path d="M148.901 20.1259C149.686 20.1259 150.243 20.6712 150.243 21.4567C150.243 22.2422 149.686 22.7875 148.901 22.7875C148.115 22.7875 147.57 22.2422 147.57 21.4567C147.57 20.6712 148.115 20.1259 148.901 20.1259ZM147.82 35.4461V24.9708H149.981V35.4461H147.82Z" fill="white"/>
<path d="M69.024 55.7821H66.863V40.4184H69.024V55.7821Z" fill="white"/>
<path d="M76.1338 45.0889C77.9126 45.0889 79.0903 45.7437 79.8658 46.7371V45.3079H82.0267V55.7832H79.8658V54.3541C79.0914 55.3475 77.9126 56.0022 76.1338 56.0022C73.1549 56.0022 70.8743 53.7105 70.8743 50.4914C70.8743 47.2723 73.1549 45.0889 76.1338 45.0889ZM73.0342 50.4903C73.0342 52.4222 74.3762 54.058 76.3952 54.058C78.4143 54.058 79.8546 52.4211 79.8546 50.4903C79.8546 48.5595 78.4031 47.0309 76.3952 47.0309C74.3762 47.0309 73.0342 48.5584 73.0342 50.4903Z" fill="white"/>
<path d="M85.3073 52.2792C85.8962 53.3049 86.9007 54.0144 88.2315 54.0144C89.3555 54.0144 90.1958 53.5675 90.1958 52.858C90.1958 52.0836 89.5522 51.8434 88.0136 51.4937C85.7654 50.992 84.162 50.2825 84.162 48.2097C84.162 46.3113 85.8973 45.0889 88.0359 45.0889C89.9891 45.0889 91.4841 46.1035 92.1825 47.2499L90.731 48.4936C90.1634 47.6857 89.2684 47.0644 88.0359 47.0644C86.999 47.0644 86.3007 47.5013 86.3007 48.1773C86.3007 48.974 87.075 49.1919 88.6136 49.5629C90.8941 50.1193 92.378 50.8612 92.378 52.858C92.378 54.7675 90.4572 56 88.2315 56C86.1912 56 84.5107 55.0614 83.7028 53.5776L85.3073 52.2792Z" fill="white"/>
<path d="M96.1871 45.3068V51.2099C96.1871 52.9451 97.1368 53.9485 98.7403 53.9485C100.388 53.9485 101.687 52.9451 101.687 51.2099V45.3068H103.848V55.7821H101.677V54.4614C101.328 54.9966 100.335 56 98.4028 56C95.5435 56 94.0272 54.21 94.0272 51.668V45.3068H96.1871Z" fill="white"/>
<path d="M34.4852 35.4394H32.0583L27.3028 22.8724L22.5484 35.4394H20.1215L25.9172 20.3896H28.6883L34.4852 35.4394Z" fill="white"/>
<path d="M14.3626 35.4394H11.9357L7.18018 22.8724L2.4258 35.4394H0L5.79576 20.3896H8.56682L14.3626 35.4394Z" fill="white"/>
<path d="M54.6055 35.4394H52.1786L47.4242 22.8724L42.6699 35.4394H40.243L46.0398 20.3896H48.8098L54.6055 35.4394Z" fill="white"/>
<path d="M44.5448 55.8592H42.1179L37.3635 43.2922L32.6091 55.8592H30.1822L35.9791 40.8094H38.749L44.5448 55.8592Z" fill="white"/>
<path d="M24.4233 55.8592H21.9964L17.242 43.2922L12.4876 55.8592H10.0607L15.8576 40.8094H18.6276L24.4233 55.8592Z" fill="white"/>
<path d="M44.5448 15.0498H42.1179L37.3635 2.48278L32.6091 15.0498H30.1822L35.9791 0H38.749L44.5448 15.0498Z" fill="white"/>
<path d="M24.4233 15.0498H21.9964L17.242 2.48278L12.4876 15.0498H10.0607L15.8576 0H18.6276L24.4233 15.0498Z" fill="white"/>
</svg>
