<svg width="13" height="16" viewBox="0 0 13 16" fill="none" xmlns="http://www.w3.org/2000/svg">
<path d="M12.5653 11.071C12.5653 11.2317 12.5356 11.4415 12.4761 11.7005C12.4167 11.9594 12.3542 12.1633 12.2888 12.3121C12.1639 12.6097 11.8011 12.9252 11.2004 13.2585C10.6413 13.5621 10.0881 13.7139 9.54096 13.7139C9.38038 13.7139 9.22276 13.7035 9.06812 13.6826C8.91349 13.6618 8.74249 13.6246 8.55514 13.571C8.36779 13.5174 8.22802 13.4743 8.13583 13.4415C8.04364 13.4088 7.87859 13.3478 7.64069 13.2585C7.40278 13.1692 7.25706 13.1157 7.20354 13.0978C6.62067 12.8895 6.10025 12.6424 5.64228 12.3567C4.88693 11.8865 4.10184 11.2436 3.28701 10.4282C2.47218 9.61268 1.82983 8.82696 1.35997 8.07101C1.07448 7.61268 0.827656 7.09184 0.619488 6.50851C0.601645 6.45494 0.548116 6.3091 0.458901 6.07101C0.369687 5.83291 0.308723 5.66774 0.276011 5.57547C0.243299 5.48321 0.200179 5.34333 0.14665 5.15583C0.093121 4.96833 0.0559482 4.7972 0.0351314 4.64244C0.0143146 4.48768 0.00390625 4.32994 0.00390625 4.16922C0.00390625 3.6216 0.155571 3.06803 0.458901 2.50851C0.79197 1.90732 1.1072 1.54422 1.40458 1.41922C1.55327 1.35375 1.75698 1.29125 2.0157 1.23172C2.27442 1.1722 2.48408 1.14244 2.64466 1.14244C2.72793 1.14244 2.79038 1.15137 2.83201 1.16922C2.93907 1.20494 3.09668 1.43113 3.30485 1.8478C3.37028 1.96089 3.45949 2.1216 3.5725 2.32994C3.6855 2.53827 3.78959 2.72726 3.88475 2.8969C3.97991 3.06655 4.0721 3.22577 4.16131 3.37458C4.17916 3.39839 4.2312 3.4728 4.31744 3.5978C4.40368 3.7228 4.46762 3.82845 4.50925 3.91476C4.55088 4.00107 4.5717 4.08589 4.5717 4.16922C4.5717 4.28827 4.48695 4.43708 4.31744 4.61565C4.14793 4.79422 3.96355 4.95791 3.76431 5.10672C3.56506 5.25553 3.38068 5.41327 3.21118 5.57994C3.04167 5.7466 2.95691 5.88351 2.95691 5.99065C2.95691 6.04422 2.97178 6.11119 3.00152 6.19155C3.03126 6.2719 3.05654 6.33291 3.07735 6.37458C3.09817 6.41625 3.1398 6.48768 3.20225 6.58887C3.26471 6.69006 3.2989 6.7466 3.30485 6.75851C3.75687 7.57399 4.27432 8.27339 4.85719 8.85672C5.44006 9.44006 6.13891 9.95791 6.95373 10.4103C6.96563 10.4162 7.02213 10.4505 7.12324 10.513C7.22435 10.5755 7.29572 10.6171 7.33736 10.638C7.37899 10.6588 7.43996 10.6841 7.52025 10.7139C7.60054 10.7436 7.66745 10.7585 7.72098 10.7585C7.82804 10.7585 7.96484 10.6737 8.13137 10.504C8.2979 10.3344 8.45552 10.1499 8.60421 9.95047C8.7529 9.75107 8.91646 9.56655 9.09489 9.3969C9.27332 9.22726 9.42201 9.14244 9.54096 9.14244C9.62423 9.14244 9.70898 9.16327 9.79522 9.20494C9.88146 9.2466 9.98704 9.31059 10.1119 9.3969C10.2368 9.48321 10.3112 9.5353 10.335 9.55315C10.4837 9.64244 10.6428 9.7347 10.8123 9.82994C10.9818 9.92518 11.1706 10.0293 11.3788 10.1424C11.587 10.2555 11.7475 10.3448 11.8605 10.4103C12.2769 10.6186 12.5029 10.7764 12.5386 10.8835C12.5564 10.9252 12.5653 10.9877 12.5653 11.071Z" fill="white"/>
</svg>
