<svg width="18" height="20" viewBox="0 0 18 20" fill="none" xmlns="http://www.w3.org/2000/svg">
<path d="M10.8503 12.02C10.8503 12.02 10.9898 11.8804 11.2688 11.6014C11.5479 11.3224 11.6874 10.7886 11.6874 9.99986C11.6874 9.21117 11.4083 8.53781 10.8503 7.97977C10.2923 7.42174 9.61891 7.14272 8.83022 7.14272C8.04153 7.14272 7.36816 7.42174 6.81013 7.97977C6.25209 8.53781 5.97307 9.21117 5.97307 9.99986C5.97307 10.7886 6.25209 11.4619 6.81013 12.02C7.36816 12.578 8.04153 12.857 8.83022 12.857C9.61891 12.857 10.2923 12.578 10.8503 12.02ZM11.9441 6.88602C11.9441 6.88602 12.158 7.09994 12.5858 7.52776C13.0136 7.95559 13.2275 8.77962 13.2275 9.99986C13.2275 11.2201 12.7997 12.258 11.9441 13.1137C11.0884 13.9694 10.0505 14.3972 8.83022 14.3972C7.60998 14.3972 6.57203 13.9694 5.71638 13.1137C4.86072 12.258 4.4329 11.2201 4.4329 9.99986C4.4329 8.77962 4.86072 7.74168 5.71638 6.88602C6.57203 6.03037 7.60998 5.60254 8.83022 5.60254C10.0505 5.60254 11.0884 6.03037 11.9441 6.88602ZM14.1316 4.69852C14.1316 4.69852 14.1818 4.74874 14.2822 4.84919C14.3827 4.94964 14.4329 5.14123 14.4329 5.42397C14.4329 5.70671 14.3324 5.94852 14.1316 6.14942C13.9307 6.35031 13.6888 6.45075 13.4061 6.45075C13.1234 6.45075 12.8816 6.35031 12.6807 6.14942C12.4798 5.94852 12.3793 5.70671 12.3793 5.42397C12.3793 5.14123 12.4798 4.89942 12.6807 4.69852C12.8816 4.49763 13.1234 4.39718 13.4061 4.39718C13.6888 4.39718 13.9307 4.49763 14.1316 4.69852ZM9.68401 2.96303C9.68401 2.96303 9.55473 2.96396 9.29618 2.96582C9.03762 2.96768 8.8823 2.96861 8.83022 2.96861C8.77813 2.96861 8.49354 2.96675 7.97642 2.96303C7.45931 2.95931 7.06682 2.95931 6.79897 2.96303C6.53111 2.96675 6.17211 2.97791 5.72196 2.99651C5.27181 3.01511 4.88863 3.05232 4.5724 3.10812C4.25618 3.16392 3.99019 3.23275 3.77441 3.31459C3.40239 3.4634 3.07501 3.67918 2.79227 3.96192C2.50953 4.24465 2.29376 4.57203 2.14495 4.94406C2.0631 5.15983 1.99428 5.42583 1.93848 5.74205C1.88267 6.05827 1.84547 6.44145 1.82687 6.8916C1.80827 7.34175 1.79711 7.70075 1.79339 7.96861C1.78967 8.23647 1.78967 8.62895 1.79339 9.14607C1.79711 9.66318 1.79897 9.94778 1.79897 9.99986C1.79897 10.0519 1.79711 10.3365 1.79339 10.8537C1.78967 11.3708 1.78967 11.7633 1.79339 12.0311C1.79711 12.299 1.80827 12.658 1.82687 13.1081C1.84547 13.5583 1.88267 13.9415 1.93848 14.2577C1.99428 14.5739 2.0631 14.8399 2.14495 15.0557C2.29376 15.4277 2.50953 15.7551 2.79227 16.0378C3.07501 16.3205 3.40239 16.5363 3.77441 16.6851C3.99019 16.767 4.25618 16.8358 4.5724 16.8916C4.88863 16.9474 5.27181 16.9846 5.72196 17.0032C6.17211 17.0218 6.53111 17.033 6.79897 17.0367C7.06682 17.0404 7.45931 17.0404 7.97642 17.0367C8.49354 17.033 8.77813 17.0311 8.83022 17.0311C8.8823 17.0311 9.1669 17.033 9.68401 17.0367C10.2011 17.0404 10.5936 17.0404 10.8615 17.0367C11.1293 17.033 11.4883 17.0218 11.9385 17.0032C12.3886 16.9846 12.7718 16.9474 13.088 16.8916C13.4042 16.8358 13.6702 16.767 13.886 16.6851C14.258 16.5363 14.5854 16.3205 14.8682 16.0378C15.1509 15.7551 15.3667 15.4277 15.5155 15.0557C15.5973 14.8399 15.6662 14.5739 15.722 14.2577C15.7778 13.9415 15.815 13.5583 15.8336 13.1081C15.8522 12.658 15.8633 12.299 15.867 12.0311C15.8708 11.7633 15.8708 11.3708 15.867 10.8537C15.8633 10.3365 15.8615 10.0519 15.8615 9.99986C15.8615 9.94778 15.8633 9.66318 15.867 9.14607C15.8708 8.62895 15.8708 8.23647 15.867 7.96861C15.8633 7.70075 15.8522 7.34175 15.8336 6.8916C15.815 6.44145 15.7778 6.05827 15.722 5.74205C15.6662 5.42583 15.5973 5.15983 15.5155 4.94406C15.3667 4.57203 15.1509 4.24465 14.8682 3.96192C14.5854 3.67918 14.258 3.4634 13.886 3.31459C13.6702 3.23275 13.4042 3.16392 13.088 3.10812C12.7718 3.05232 12.3886 3.01511 11.9385 2.99651C11.4883 2.97791 11.1293 2.96675 10.8615 2.96303C10.5936 2.95931 10.2011 2.95931 9.68401 2.96303ZM17.3458 6.46192C17.383 7.11668 17.4016 8.29599 17.4016 9.99986C17.4016 11.7037 17.383 12.883 17.3458 13.5378C17.2714 15.0854 16.8101 16.2833 15.9619 17.1316C15.1137 17.9798 13.9158 18.4411 12.3682 18.5155C11.7134 18.5527 10.5341 18.5713 8.83022 18.5713C7.12635 18.5713 5.94703 18.5527 5.29227 18.5155C3.74465 18.4411 2.54674 17.9798 1.69852 17.1316C0.850307 16.2833 0.388997 15.0854 0.314593 13.5378C0.27739 12.883 0.258789 11.7037 0.258789 9.99986C0.258789 8.29599 0.27739 7.11668 0.314593 6.46192C0.388997 4.9143 0.850307 3.71638 1.69852 2.86817C2.54674 2.01995 3.74465 1.55864 5.29227 1.48424C5.94703 1.44703 7.12635 1.42843 8.83022 1.42843C10.5341 1.42843 11.7134 1.44703 12.3682 1.48424C13.9158 1.55864 15.1137 2.01995 15.9619 2.86817C16.8101 3.71638 17.2714 4.9143 17.3458 6.46192Z" fill="white"/>
</svg>
