<svg width="16" height="16" viewBox="0 0 16 16" fill="none" xmlns="http://www.w3.org/2000/svg">
<path d="M14.8571 13.4289V6.57171C14.6667 6.78599 14.4613 6.98242 14.2411 7.16099C12.6458 8.38718 11.378 9.39314 10.4375 10.1789C10.1339 10.4348 9.88691 10.6342 9.69643 10.7771C9.50595 10.9199 9.24851 11.0643 8.92411 11.2101C8.5997 11.3559 8.29464 11.4289 8.00893 11.4289H8H7.99107C7.70536 11.4289 7.4003 11.3559 7.07589 11.2101C6.75149 11.0643 6.49405 10.9199 6.30357 10.7771C6.1131 10.6342 5.86607 10.4348 5.5625 10.1789C4.62202 9.39314 3.35417 8.38718 1.75893 7.16099C1.53869 6.98242 1.33333 6.78599 1.14286 6.57171V13.4289C1.14286 13.5062 1.17113 13.5732 1.22768 13.6297C1.28423 13.6863 1.35119 13.7146 1.42857 13.7146H14.5714C14.6488 13.7146 14.7158 13.6863 14.7723 13.6297C14.8289 13.5732 14.8571 13.5062 14.8571 13.4289ZM14.8571 4.04492C14.8571 4.03302 14.8571 4.00028 14.8571 3.94671C14.8571 3.89314 14.8571 3.85296 14.8571 3.82617C14.8571 3.79939 14.8557 3.7607 14.8527 3.7101C14.8497 3.6595 14.8408 3.6223 14.8259 3.59849C14.811 3.57468 14.7946 3.5479 14.7768 3.51814C14.7589 3.48837 14.7321 3.46605 14.6964 3.45117C14.6607 3.43629 14.619 3.42885 14.5714 3.42885H1.42857C1.35119 3.42885 1.28423 3.45712 1.22768 3.51367C1.17113 3.57022 1.14286 3.63718 1.14286 3.71456C1.14286 4.71456 1.58036 5.5598 2.45536 6.25028C3.60417 7.15504 4.79762 8.09849 6.03571 9.08064C6.07143 9.1104 6.1756 9.1982 6.34821 9.34403C6.52083 9.48986 6.65774 9.60147 6.75893 9.67885C6.86012 9.75623 6.99256 9.84998 7.15625 9.9601C7.31994 10.0702 7.47024 10.1521 7.60714 10.2056C7.74405 10.2592 7.87202 10.286 7.99107 10.286H8H8.00893C8.12798 10.286 8.25595 10.2592 8.39286 10.2056C8.52976 10.1521 8.68006 10.0702 8.84375 9.9601C9.00744 9.84998 9.13988 9.75623 9.24107 9.67885C9.34226 9.60147 9.47917 9.48986 9.65179 9.34403C9.82441 9.1982 9.92857 9.1104 9.96429 9.08064C11.2024 8.09849 12.3958 7.15504 13.5446 6.25028C13.8661 5.99433 14.1652 5.65058 14.442 5.21903C14.7188 4.78748 14.8571 4.39611 14.8571 4.04492ZM16 3.71456V13.4289C16 13.8217 15.8601 14.158 15.5804 14.4378C15.3006 14.7175 14.9643 14.8574 14.5714 14.8574H1.42857C1.03571 14.8574 0.699405 14.7175 0.419643 14.4378C0.139881 14.158 0 13.8217 0 13.4289V3.71456C0 3.32171 0.139881 2.9854 0.419643 2.70564C0.699405 2.42587 1.03571 2.28599 1.42857 2.28599H14.5714C14.9643 2.28599 15.3006 2.42587 15.5804 2.70564C15.8601 2.9854 16 3.32171 16 3.71456Z" fill="white"/>
</svg>
