<svg width="204" height="25" viewBox="0 0 204 25" fill="none" xmlns="http://www.w3.org/2000/svg">
<path d="M1.82 11.7018H3.991C4.31167 11.7018 4.602 11.6281 4.862 11.4808C5.122 11.3248 5.32567 11.1168 5.473 10.8568C5.62033 10.5881 5.694 10.2934 5.694 9.97277C5.694 9.64343 5.62033 9.34877 5.473 9.08876C5.32567 8.8201 5.122 8.6121 4.862 8.46477C4.602 8.30877 4.31167 8.23077 3.991 8.23077H1.82V7.16476H4.017C4.55433 7.16476 5.03967 7.2861 5.473 7.52876C5.90633 7.77143 6.24433 8.10943 6.487 8.54276C6.73833 8.96743 6.864 9.4441 6.864 9.97277C6.864 10.4928 6.73833 10.9694 6.487 11.4028C6.24433 11.8274 5.90633 12.1611 5.473 12.4038C5.03967 12.6464 4.55433 12.7678 4.017 12.7678H1.82V11.7018ZM1.066 7.16476H2.21V16.1348H1.066V7.16476ZM12.5638 16.2908C11.9051 16.2908 11.3071 16.1391 10.7698 15.8358C10.2325 15.5324 9.80781 15.1164 9.49581 14.5878C9.19248 14.0591 9.04081 13.4698 9.04081 12.8198C9.04081 12.1698 9.19248 11.5804 9.49581 11.0518C9.80781 10.5231 10.2325 10.1071 10.7698 9.80377C11.3071 9.50043 11.9051 9.34877 12.5638 9.34877C13.2225 9.34877 13.8205 9.50043 14.3578 9.80377C14.8951 10.1071 15.3155 10.5231 15.6188 11.0518C15.9308 11.5804 16.0868 12.1698 16.0868 12.8198C16.0868 13.4698 15.9308 14.0591 15.6188 14.5878C15.3155 15.1164 14.8951 15.5324 14.3578 15.8358C13.8205 16.1391 13.2225 16.2908 12.5638 16.2908ZM12.5638 15.2508C13.0231 15.2508 13.4348 15.1468 13.7988 14.9388C14.1715 14.7221 14.4618 14.4318 14.6698 14.0678C14.8778 13.6951 14.9818 13.2791 14.9818 12.8198C14.9818 12.3691 14.8735 11.9574 14.6568 11.5848C14.4488 11.2121 14.1628 10.9218 13.7988 10.7138C13.4348 10.4971 13.0231 10.3888 12.5638 10.3888C12.1131 10.3888 11.7015 10.4971 11.3288 10.7138C10.9648 10.9218 10.6745 11.2121 10.4578 11.5848C10.2498 11.9488 10.1458 12.3604 10.1458 12.8198C10.1458 13.2704 10.2498 13.6821 10.4578 14.0548C10.6745 14.4274 10.9648 14.7221 11.3288 14.9388C11.7015 15.1468 12.1131 15.2508 12.5638 15.2508ZM17.9863 9.50476H19.2083L21.2493 15.2508L20.9763 15.2378L23.0823 9.50476H24.2003L26.3063 15.2378L26.0203 15.2508L28.0743 9.50476H29.2573L26.7223 16.1348H25.5913L23.5113 10.4148H23.7453L21.6523 16.1348H20.5213L17.9863 9.50476ZM34.683 16.2908C34.0243 16.2908 33.4263 16.1391 32.889 15.8358C32.3516 15.5324 31.927 15.1164 31.615 14.5878C31.3116 14.0591 31.16 13.4698 31.16 12.8198C31.16 12.1698 31.3116 11.5804 31.615 11.0518C31.927 10.5231 32.3516 10.1071 32.889 9.80377C33.4263 9.50043 34.0243 9.34877 34.683 9.34877C35.3416 9.34877 35.9396 9.50043 36.477 9.80377C37.0143 10.1071 37.4346 10.5231 37.738 11.0518C38.05 11.5804 38.206 12.1698 38.206 12.8198C38.206 12.9931 38.193 13.1448 38.167 13.2748H32.083V12.2998H37.322L37.101 12.8198V12.7158C37.0836 12.2651 36.9666 11.8621 36.75 11.5068C36.542 11.1428 36.256 10.8568 35.892 10.6488C35.528 10.4408 35.125 10.3368 34.683 10.3368C34.2236 10.3368 33.8076 10.4451 33.435 10.6618C33.071 10.8784 32.785 11.1774 32.577 11.5588C32.369 11.9314 32.265 12.3518 32.265 12.8198C32.265 13.2878 32.369 13.7124 32.577 14.0938C32.785 14.4664 33.071 14.7611 33.435 14.9778C33.8076 15.1944 34.2236 15.3028 34.683 15.3028C35.1856 15.3028 35.632 15.1858 36.022 14.9518C36.4206 14.7178 36.711 14.4058 36.893 14.0158H38.063C37.8203 14.7004 37.3956 15.2508 36.789 15.6668C36.1823 16.0828 35.4803 16.2908 34.683 16.2908ZM41.1505 9.50476H42.2165V16.1348H41.1505V9.50476ZM41.7095 12.4688C41.7701 11.8621 41.9175 11.3248 42.1515 10.8568C42.3941 10.3888 42.7061 10.0291 43.0875 9.77777C43.4775 9.52643 43.9195 9.40077 44.4135 9.40077V10.5058C43.9628 10.5058 43.5685 10.6011 43.2305 10.7918C42.9011 10.9824 42.6498 11.2511 42.4765 11.5978C42.3031 11.9358 42.2165 12.3344 42.2165 12.7938L41.7095 12.4688ZM49.9593 16.2908C49.3007 16.2908 48.7027 16.1391 48.1653 15.8358C47.628 15.5324 47.2033 15.1164 46.8913 14.5878C46.588 14.0591 46.4363 13.4698 46.4363 12.8198C46.4363 12.1698 46.588 11.5804 46.8913 11.0518C47.2033 10.5231 47.628 10.1071 48.1653 9.80377C48.7027 9.50043 49.3007 9.34877 49.9593 9.34877C50.618 9.34877 51.216 9.50043 51.7533 9.80377C52.2907 10.1071 52.711 10.5231 53.0143 11.0518C53.3263 11.5804 53.4823 12.1698 53.4823 12.8198C53.4823 12.9931 53.4693 13.1448 53.4433 13.2748H47.3593V12.2998H52.5983L52.3773 12.8198V12.7158C52.36 12.2651 52.243 11.8621 52.0263 11.5068C51.8183 11.1428 51.5323 10.8568 51.1683 10.6488C50.8043 10.4408 50.4013 10.3368 49.9593 10.3368C49.5 10.3368 49.084 10.4451 48.7113 10.6618C48.3473 10.8784 48.0613 11.1774 47.8533 11.5588C47.6453 11.9314 47.5413 12.3518 47.5413 12.8198C47.5413 13.2878 47.6453 13.7124 47.8533 14.0938C48.0613 14.4664 48.3473 14.7611 48.7113 14.9778C49.084 15.1944 49.5 15.3028 49.9593 15.3028C50.462 15.3028 50.9083 15.1858 51.2983 14.9518C51.697 14.7178 51.9873 14.4058 52.1693 14.0158H53.3393C53.0967 14.7004 52.672 15.2508 52.0653 15.6668C51.4587 16.0828 50.7567 16.2908 49.9593 16.2908ZM59.3388 16.2908C58.7148 16.2908 58.1515 16.1391 57.6488 15.8358C57.1462 15.5324 56.7475 15.1164 56.4528 14.5878C56.1582 14.0591 56.0108 13.4698 56.0108 12.8198C56.0108 12.1698 56.1582 11.5804 56.4528 11.0518C56.7475 10.5231 57.1462 10.1071 57.6488 9.80377C58.1515 9.50043 58.7148 9.34877 59.3388 9.34877C59.9368 9.34877 60.4742 9.50043 60.9508 9.80377C61.4362 10.1071 61.8132 10.5231 62.0818 11.0518C62.3505 11.5804 62.4848 12.1698 62.4848 12.8198C62.4848 13.4698 62.3505 14.0591 62.0818 14.5878C61.8132 15.1164 61.4362 15.5324 60.9508 15.8358C60.4742 16.1391 59.9368 16.2908 59.3388 16.2908ZM59.5338 15.2508C59.9932 15.2508 60.4048 15.1468 60.7688 14.9388C61.1415 14.7221 61.4318 14.4318 61.6398 14.0678C61.8478 13.6951 61.9518 13.2791 61.9518 12.8198C61.9518 12.3691 61.8478 11.9574 61.6398 11.5848C61.4318 11.2121 61.1415 10.9218 60.7688 10.7138C60.4048 10.4971 59.9932 10.3888 59.5338 10.3888C59.0832 10.3888 58.6715 10.4971 58.2988 10.7138C57.9348 10.9218 57.6445 11.2121 57.4278 11.5848C57.2198 11.9488 57.1158 12.3604 57.1158 12.8198C57.1158 13.2704 57.2198 13.6821 57.4278 14.0548C57.6445 14.4274 57.9348 14.7221 58.2988 14.9388C58.6715 15.1468 59.0832 15.2508 59.5338 15.2508ZM61.9518 6.77477H63.0308V16.1348H61.9518V6.77477ZM74.8617 16.2908C74.2637 16.2908 73.722 16.1391 73.2367 15.8358C72.76 15.5324 72.3874 15.1164 72.1187 14.5878C71.85 14.0591 71.7157 13.4698 71.7157 12.8198C71.7157 12.1698 71.85 11.5804 72.1187 11.0518C72.3874 10.5231 72.76 10.1071 73.2367 9.80377C73.722 9.50043 74.2637 9.34877 74.8617 9.34877C75.4944 9.34877 76.062 9.50043 76.5647 9.80377C77.0674 10.1071 77.4617 10.5231 77.7477 11.0518C78.0424 11.5804 78.1897 12.1698 78.1897 12.8198C78.1897 13.4698 78.0424 14.0591 77.7477 14.5878C77.4617 15.1164 77.0674 15.5324 76.5647 15.8358C76.062 16.1391 75.4944 16.2908 74.8617 16.2908ZM71.1827 6.77477H72.2487V16.1348H71.1827V6.77477ZM74.6667 15.2508C75.1174 15.2508 75.5247 15.1468 75.8887 14.9388C76.2614 14.7221 76.5517 14.4318 76.7597 14.0678C76.9764 13.6951 77.0847 13.2791 77.0847 12.8198C77.0847 12.3691 76.9764 11.9574 76.7597 11.5848C76.5517 11.2121 76.2614 10.9218 75.8887 10.7138C75.5247 10.4971 75.1174 10.3888 74.6667 10.3888C74.216 10.3888 73.8044 10.4971 73.4317 10.7138C73.0677 10.9218 72.7774 11.2121 72.5607 11.5848C72.3527 11.9488 72.2487 12.3604 72.2487 12.8198C72.2487 13.2704 72.3527 13.6821 72.5607 14.0548C72.7774 14.4274 73.0677 14.7221 73.4317 14.9388C73.8044 15.1468 74.216 15.2508 74.6667 15.2508ZM80.9504 17.6168H82.5624L82.1464 17.9158L83.0694 15.9008V16.3168L80.0664 9.50476H81.2884L83.7324 15.2638H83.3944L85.8384 9.50476H87.0474L83.0304 18.6048H80.9504V17.6168ZM136.263 7.16476H138.408L140.696 14.2368H140.215L142.49 7.16476H144.258L146.559 14.2368H146.078L148.34 7.16476H150.446L147.274 16.1348H145.311L143.049 9.16677H143.66L141.398 16.1348H139.435L136.263 7.16476ZM154.991 16.2908C154.323 16.2908 153.717 16.1391 153.171 15.8358C152.633 15.5324 152.209 15.1164 151.897 14.5878C151.585 14.0591 151.429 13.4698 151.429 12.8198C151.429 12.1698 151.58 11.5804 151.884 11.0518C152.196 10.5231 152.625 10.1071 153.171 9.80377C153.717 9.50043 154.323 9.34877 154.991 9.34877C155.667 9.34877 156.273 9.50043 156.811 9.80377C157.357 10.1071 157.786 10.5274 158.098 11.0648C158.41 11.5934 158.566 12.1871 158.566 12.8458C158.566 13.0798 158.548 13.2748 158.514 13.4308H153.041V12.1698H157.058L156.681 12.8198V12.7158C156.672 12.3691 156.594 12.0614 156.447 11.7928C156.299 11.5241 156.1 11.3161 155.849 11.1688C155.597 11.0214 155.311 10.9478 154.991 10.9478C154.679 10.9478 154.393 11.0258 154.133 11.1818C153.881 11.3378 153.682 11.5588 153.535 11.8448C153.387 12.1308 153.314 12.4558 153.314 12.8198C153.314 13.1838 153.387 13.5088 153.535 13.7948C153.682 14.0808 153.886 14.3018 154.146 14.4578C154.406 14.6138 154.7 14.6918 155.03 14.6918C155.359 14.6918 155.654 14.6268 155.914 14.4968C156.182 14.3668 156.373 14.1934 156.486 13.9768H158.436C158.193 14.6701 157.764 15.2291 157.149 15.6538C156.533 16.0784 155.814 16.2908 154.991 16.2908ZM165.064 16.2908C164.492 16.2908 163.985 16.1434 163.543 15.8488C163.11 15.5454 162.772 15.1294 162.529 14.6008C162.286 14.0721 162.165 13.4784 162.165 12.8198C162.165 12.1611 162.286 11.5674 162.529 11.0388C162.772 10.5101 163.11 10.0984 163.543 9.80377C163.985 9.50043 164.492 9.34877 165.064 9.34877C165.662 9.34877 166.204 9.50043 166.689 9.80377C167.183 10.1071 167.569 10.5231 167.846 11.0518C168.132 11.5804 168.275 12.1698 168.275 12.8198C168.275 13.4698 168.132 14.0591 167.846 14.5878C167.569 15.1164 167.183 15.5324 166.689 15.8358C166.204 16.1391 165.662 16.2908 165.064 16.2908ZM161.177 6.77477H163.01V16.1348H161.177V6.77477ZM164.7 14.5228C165.021 14.5228 165.307 14.4491 165.558 14.3018C165.818 14.1544 166.022 13.9508 166.169 13.6908C166.316 13.4308 166.39 13.1404 166.39 12.8198C166.39 12.4991 166.316 12.2088 166.169 11.9488C166.022 11.6888 165.818 11.4851 165.558 11.3378C165.298 11.1904 165.012 11.1168 164.7 11.1168C164.379 11.1168 164.089 11.1904 163.829 11.3378C163.578 11.4851 163.378 11.6888 163.231 11.9488C163.084 12.2088 163.01 12.4991 163.01 12.8198C163.01 13.1404 163.084 13.4308 163.231 13.6908C163.378 13.9508 163.582 14.1544 163.842 14.3018C164.102 14.4491 164.388 14.5228 164.7 14.5228ZM171.581 8.17876H173.531V16.1348H171.581V8.17876ZM169.332 7.16476H175.78V8.99777H169.332V7.16476ZM178.383 9.50476H180.216V16.1348H178.383V9.50476ZM179.306 8.62077C178.977 8.62077 178.704 8.51243 178.487 8.29577C178.271 8.0791 178.162 7.81043 178.162 7.48977C178.162 7.1691 178.271 6.90043 178.487 6.68376C178.704 6.4671 178.977 6.35877 179.306 6.35877C179.636 6.35877 179.904 6.4671 180.112 6.68376C180.329 6.90043 180.437 7.1691 180.437 7.48977C180.437 7.81043 180.329 8.0791 180.112 8.29577C179.904 8.51243 179.636 8.62077 179.306 8.62077ZM183.26 6.77477H185.093V15.2898L184.274 14.4578H186.185V16.1348H183.26V6.77477ZM191.779 16.2908C191.112 16.2908 190.505 16.1391 189.959 15.8358C189.422 15.5324 188.997 15.1164 188.685 14.5878C188.373 14.0591 188.217 13.4698 188.217 12.8198C188.217 12.1698 188.369 11.5804 188.672 11.0518C188.984 10.5231 189.413 10.1071 189.959 9.80377C190.505 9.50043 191.112 9.34877 191.779 9.34877C192.455 9.34877 193.062 9.50043 193.599 9.80377C194.145 10.1071 194.574 10.5274 194.886 11.0648C195.198 11.5934 195.354 12.1871 195.354 12.8458C195.354 13.0798 195.337 13.2748 195.302 13.4308H189.829V12.1698H193.846L193.469 12.8198V12.7158C193.46 12.3691 193.382 12.0614 193.235 11.7928C193.088 11.5241 192.888 11.3161 192.637 11.1688C192.386 11.0214 192.1 10.9478 191.779 10.9478C191.467 10.9478 191.181 11.0258 190.921 11.1818C190.67 11.3378 190.47 11.5588 190.323 11.8448C190.176 12.1308 190.102 12.4558 190.102 12.8198C190.102 13.1838 190.176 13.5088 190.323 13.7948C190.47 14.0808 190.674 14.3018 190.934 14.4578C191.194 14.6138 191.489 14.6918 191.818 14.6918C192.147 14.6918 192.442 14.6268 192.702 14.4968C192.971 14.3668 193.161 14.1934 193.274 13.9768H195.224C194.981 14.6701 194.552 15.2291 193.937 15.6538C193.322 16.0784 192.602 16.2908 191.779 16.2908ZM200.11 16.2908C199.634 16.2908 199.2 16.1954 198.81 16.0048C198.42 15.8054 198.113 15.5411 197.887 15.2118C197.671 14.8824 197.562 14.5184 197.562 14.1198H199.395C199.395 14.3191 199.465 14.4881 199.603 14.6268C199.751 14.7568 199.928 14.8218 200.136 14.8218C200.327 14.8218 200.487 14.7698 200.617 14.6658C200.747 14.5618 200.812 14.4361 200.812 14.2888C200.812 14.0894 200.717 13.9334 200.526 13.8208C200.336 13.6994 200.071 13.5998 199.733 13.5218C199.127 13.3831 198.628 13.1534 198.238 12.8328C197.848 12.5121 197.653 12.0441 197.653 11.4288C197.653 10.9954 197.762 10.6228 197.978 10.3108C198.204 9.9901 198.503 9.75177 198.875 9.59577C199.248 9.4311 199.655 9.34877 200.097 9.34877C200.557 9.34877 200.973 9.4441 201.345 9.63477C201.727 9.81677 202.021 10.0681 202.229 10.3888C202.446 10.7008 202.554 11.0431 202.554 11.4158H200.721C200.721 11.2511 200.661 11.1124 200.539 10.9998C200.418 10.8784 200.266 10.8178 200.084 10.8178C199.92 10.8178 199.777 10.8654 199.655 10.9608C199.543 11.0561 199.486 11.1731 199.486 11.3118C199.486 11.4938 199.582 11.6454 199.772 11.7668C199.972 11.8881 200.253 11.9921 200.617 12.0788C201.224 12.2261 201.714 12.4558 202.086 12.7678C202.459 13.0711 202.645 13.5218 202.645 14.1198C202.645 14.5704 202.533 14.9604 202.307 15.2898C202.082 15.6104 201.774 15.8574 201.384 16.0308C201.003 16.2041 200.578 16.2908 200.11 16.2908Z" fill="white"/>
<g clip-path="url(#clip0_218_202)">
<path d="M105.606 24.2656L105.61 24.2694V24.2656H105.606Z" fill="#FDF7E7"/>
<path d="M129.61 12.2671L117.61 24.2659V19.9208L125.262 12.2677L117.61 4.62008V0.269531L129.61 12.2671Z" fill="#FDF7E7"/>
<path d="M111.611 6.86835L106.211 12.2676L111.611 17.6668L117.011 12.2676L111.611 6.86835Z" fill="#FDF7E7"/>
<path d="M105.61 4.66327L98.0042 12.2677L105.61 19.8716V24.2659H105.61L105.607 24.2623L93.6104 12.2677L105.61 0.269531V4.66327Z" fill="#FDF7E7"/>
<path d="M105.61 24.2656V24.2694L105.606 24.2656H105.61Z" fill="#FDF7E7"/>
<path d="M105.61 24.2656V24.2694L105.606 24.2656H105.61Z" fill="#FDF7E7"/>
<path d="M105.61 24.2656V24.2694L105.606 24.2656H105.61Z" fill="white"/>
</g>
<defs>
<clipPath id="clip0_218_202">
<rect width="36" height="24" fill="white" transform="translate(93.6104 0.269531)"/>
</clipPath>
</defs>
</svg>
